<svg height="512pt" viewBox="-35 0 512 512" width="512pt" xmlns="http://www.w3.org/2000/svg"><g fill="#ffc89f"><path d="m188.707031 17.484375c-1.644531-1.429687-3.832031-2.070313-5.988281-1.757813-81.8125 11.78125-129.585938 63.4375-141.988281 153.535157-.46875 3.417969 1.449219 6.71875 4.652343 8 .910157.363281 1.855469.535156 2.789063.535156 2.359375 0 4.652344-1.117187 6.097656-3.125 2.714844-3.769531 6.140625-6.652344 9.90625-8.332031 40.453125-18.023438 87.765625-25.535156 120.332031-28.664063 3.855469-.371093 6.796876-3.609375 6.796876-7.476562v-107.039063c-.003907-2.179687-.949219-4.25-2.597657-5.675781zm0 0"/><path d="m402.015625 169.285156c-12.394531-90.117187-60.171875-141.78125-142.003906-153.5625-2.152344-.308594-4.339844.332032-5.988281 1.757813-1.644532 1.425781-2.59375 3.5-2.59375 5.679687v106.8125c0 3.875 2.949218 7.113282 6.804687 7.480469 32.136719 3.042969 79.09375 10.523437 120.304687 28.878906 3.777344 1.683594 7.214844 4.574219 9.9375 8.363281 1.445313 2.007813 3.734376 3.128907 6.101563 3.128907.933594 0 1.875-.175781 2.78125-.539063 3.207031-1.277344 5.128906-4.578125 4.65625-8zm0 0"/><path d="m392.847656 323.535156c-2.144531-1.730468-5.066406-2.144531-7.613281-1.078125-.921875.382813-1.78125.683594-2.632813.917969l-55.359374 15.246094c-12.035157 3.316406-24.394532 1.925781-35.738282-4.015625l-52.910156-27.710938c-10.949219-5.734375-23.507812-5.734375-34.457031 0l-52.90625 27.710938c-11.347657 5.945312-23.703125 7.332031-35.738281 4.019531l-55.359376-15.25c-.847656-.230469-1.707031-.53125-2.625-.914062-2.542968-1.066407-5.464843-.648438-7.613281 1.078124-2.148437 1.734376-3.171875 4.5-2.671875 7.210938 7.96875 43.25 19.449219 62.746094 43.746094 96.914062 12.238281 17.210938 28.5625 36.140626 48.515625 56.261719 17.632813 17.78125 32.957031 28.074219 59.097656 28.074219h45.582031c26.140626 0 41.460938-10.292969 59.097657-28.074219 19.953125-20.121093 36.277343-39.050781 48.511719-56.261719 24.300781-34.171874 35.78125-53.667968 43.75-96.917968.5-2.710938-.527344-5.480469-2.675782-7.210938zm0 0"/></g><path d="m402.015625 169.285156c-12.394531-90.117187-60.171875-141.78125-142.003906-153.5625-2.152344-.308594-4.339844.332032-5.988281 1.757813-1.644532 1.425781-2.59375 3.5-2.59375 5.679687v.972656c56.90625 19.328126 91.914062 64.003907 104.355468 133.292969 7.6875 2.640625 15.316406 5.59375 22.753906 8.90625 3.777344 1.683594 7.214844 4.574219 9.9375 8.363281 1.445313 2.007813 3.734376 3.128907 6.101563 3.128907.933594 0 1.875-.175781 2.78125-.535157 3.207031-1.28125 5.128906-4.582031 4.65625-8.003906zm0 0" fill="#f7b081"/><path d="m392.847656 323.535156c-2.144531-1.730468-5.066406-2.144531-7.613281-1.078125-.921875.382813-1.78125.683594-2.632813.917969l-31.691406 8.730469c-7.957031 42.292969-19.449218 61.75-43.488281 95.558593-12.238281 17.210938-28.5625 36.136719-48.515625 56.257813-17.632812 17.785156-32.957031 28.078125-59.097656 28.078125h44.351562c26.140625 0 41.464844-10.292969 59.097656-28.078125 19.957032-20.121094 36.277344-39.046875 48.515626-56.257813 24.296874-34.171874 35.777343-53.667968 43.75-96.917968.5-2.710938-.527344-5.480469-2.675782-7.210938zm0 0" fill="#f7b081"/><path d="m188.707031 17.484375c-1.644531-1.429687-3.832031-2.070313-5.988281-1.757813-12.453125 1.792969-24.113281 4.515626-34.988281 8.152344v118.632813c13.367187-2.253907 25.898437-3.792969 36.777343-4.835938 3.855469-.371093 6.792969-3.609375 6.792969-7.480469v-107.035156c0-2.179687-.945312-4.25-2.59375-5.675781zm0 0" fill="#f7b081"/><path d="m243.753906 0h-44.773437c-12.519531 0-22.703125 10.183594-22.703125 22.703125v107.492187c0 2.121094.894531 4.136719 2.460937 5.5625 1.390625 1.261719 3.191407 1.953126 5.050781 1.953126.238282 0 .480469-.011719.71875-.035157 22.8125-2.191406 38.417969-2.210937 38.699219-2.210937h.019531c.019532.023437 14.058594.003906 35.007813 1.988281 2.113281.191406 4.199219-.5 5.765625-1.921875 1.5625-1.425781 2.457031-3.441406 2.457031-5.558594v-107.269531c0-12.519531-10.1875-22.703125-22.703125-22.703125zm0 0" fill="#243133"/><path d="m223.226562 101.8125c-1.6875-.015625-20.394531.03125-46.949218 2.902344v25.484375c0 2.117187.894531 4.132812 2.460937 5.558593 1.390625 1.261719 3.191407 1.953126 5.050781 1.953126.238282 0 .480469-.011719.71875-.035157 22.8125-2.191406 38.417969-2.210937 38.699219-2.210937h.019531c.019532.023437 14.058594.003906 35.007813 1.988281 2.113281.195313 4.199219-.5 5.765625-1.921875 1.5625-1.421875 2.457031-3.441406 2.457031-5.554688v-25.480468c-24.621093-2.644532-41.65625-2.691406-43.230469-2.683594zm0 0" fill="#1d2728"/><path d="m42.84375 173.152344h-22.414062c-11.265626 0-20.429688 9.164062-20.429688 20.429687v51.386719c0 11.265625 9.164062 20.433594 20.429688 20.433594h14.765624c3.914063 0 7.171876-3.007813 7.488282-6.90625l5.367187-66.304688c.25-3.101562.886719-6.152344 1.898438-9.078125.789062-2.296875.421875-4.832031-.984375-6.808593-1.414063-1.980469-3.691406-3.152344-6.121094-3.152344zm0 0" fill="#243133"/><path d="m422.3125 173.152344h-22.414062c-2.429688 0-4.707032 1.171875-6.117188 3.148437-1.410156 1.980469-1.773438 4.515625-.984375 6.8125 1.007813 2.921875 1.648437 5.976563 1.898437 9.078125l5.367188 66.304688c.316406 3.898437 3.574219 6.90625 7.488281 6.90625h14.761719c11.265625 0 20.433594-9.164063 20.433594-20.433594v-51.386719c0-11.265625-9.167969-20.429687-20.433594-20.429687zm0 0" fill="#243133"/><path d="m435.089844 230.921875h-37.257813l2.230469 27.574219c.316406 3.898437 3.574219 6.90625 7.488281 6.90625h14.761719c11.265625 0 20.429688-9.164063 20.429688-20.433594v-14.101562c-2.527344.035156-5.078126.054687-7.652344.054687zm0 0" fill="#1d2728"/><path d="m44.925781 230.773438c-4.09375.089843-8.234375.148437-12.453125.148437h-32.472656v14.046875c0 11.265625 9.164062 20.433594 20.429688 20.433594h14.761718c3.914063 0 7.171875-3.007813 7.488282-6.90625zm0 0" fill="#1d2728"/><path d="m417.507812 287.949219-7.847656-96.972657c-1.410156-17.421874-10.996094-32.125-25.007812-38.367187-71.6875-31.929687-157.789063-32.1875-161.425782-32.171875-3.792968-.03125-93.464843.234375-165.164062 32.179688-14.003906 6.238281-23.578125 20.9375-24.988281 38.359374l-7.851563 96.972657c-1.867187 23.082031 11.425782 44.542969 30.921875 49.910156l55.355469 15.25c15.546875 4.277344 32.132812 2.4375 46.699219-5.195313l52.910156-27.710937c6.613281-3.464844 13.902344-3.464844 20.515625 0l52.910156 27.710937c9.425782 4.9375 19.695313 7.453126 29.980469 7.453126 5.613281 0 11.230469-.75 16.714844-2.261719l55.359375-15.246094c19.496094-5.367187 32.789062-26.828125 30.917968-49.910156zm0 0" fill="#3e5359"/><path d="m408.984375 275.75c-3.148437 13.542969-12.289063 24.492188-24.390625 27.824219l-55.355469 15.246093c-13.796875 3.800782-28.257812 2.1875-41.21875-4.601562l-52.910156-27.714844c-8.757813-4.585937-18.730469-4.585937-27.488281 0l-52.90625 27.714844c-12.964844 6.789062-27.421875 8.402344-41.21875 4.601562l-55.355469-15.246093c-12.101563-3.332031-21.242187-14.28125-24.390625-27.824219l-1.039062 12.804688c-1.585938 19.625 9.285156 37.617187 25.429687 42.0625l55.355469 15.246093c13.796875 3.800781 28.257812 2.1875 41.21875-4.601562l52.90625-27.710938c8.757812-4.589843 18.730468-4.589843 27.488281 0l52.910156 27.710938c12.960938 6.789062 27.421875 8.402343 41.21875 4.601562l55.355469-15.246093c16.144531-4.445313 27.015625-22.4375 25.429688-42.0625zm0 0" fill="#334549"/><path d="m67.183594 272.976562c-.1875 0-.375-.007812-.5625-.023437-4.136719-.304687-7.242188-3.910156-6.9375-8.046875l4.175781-56.222656c.308594-4.136719 3.90625-7.242188 8.046875-6.933594 4.136719.308594 7.242188 3.910156 6.9375 8.046875l-4.175781 56.222656c-.292969 3.949219-3.589844 6.957031-7.484375 6.957031zm0 0" fill="#243133"/><path d="m379.253906 272.976562c-3.898437 0-7.191406-3.007812-7.484375-6.957031l-4.175781-56.222656c-.308594-4.136719 2.796875-7.738281 6.933594-8.046875 4.140625-.316406 7.742187 2.796875 8.050781 6.933594l4.171875 56.222656c.308594 4.136719-2.796875 7.742188-6.933594 8.046875-.1875.015625-.378906.023437-.5625.023437zm0 0" fill="#243133"/></svg>